<?xml version="1.0" encoding="UTF-8" standalone="no"?>
<!DOCTYPE svg PUBLIC "-//W3C//DTD SVG 1.1//EN" "http://www.w3.org/Graphics/SVG/1.1/DTD/svg11.dtd">
<svg width="100%" height="100%" viewBox="0 0 1995 847" version="1.1" xmlns="http://www.w3.org/2000/svg" xmlns:xlink="http://www.w3.org/1999/xlink" xml:space="preserve" xmlns:serif="http://www.serif.com/" style="fill-rule:evenodd;clip-rule:evenodd;stroke-linejoin:round;stroke-miterlimit:2;">
    <g transform="matrix(1,0,0,1,-1136,-1635)">
        <g transform="matrix(0.352646,0,0,0.352646,1351.57,1343.86)">
            <g id="Layer3">
                <g>
                    <g id="Layer2">
                        <g transform="matrix(0.808597,0,0,1.11524,311.697,-176.751)">
                            <path d="M3789.11,1213.12C3790.26,1208.61 3790.82,1203.93 3790.6,1199.26C3790.45,1196.15 3789.96,1193.05 3789.11,1190.05C3784.18,1172.45 3768.28,1160.8 3752.12,1154.11C3749.44,1153.01 3746.71,1152.01 3743.95,1151.12C3740.62,1150.04 3737.25,1149.11 3733.85,1148.31C3729.32,1147.25 3724.74,1146.42 3720.14,1145.78C3714.21,1144.96 3708.24,1144.46 3702.26,1144.24C3694.17,1143.95 3686.06,1144.15 3677.99,1144.78C3035.73,1194.52 2393.54,1245.15 1751.47,1297.31C1734.6,1298.68 1717.94,1302.56 1701.96,1308.11C1685.13,1313.96 1668.88,1321.72 1653.96,1331.48C1639.57,1340.91 1625.6,1352.5 1616.41,1367.27C1364.48,1772.41 1114.04,2178.48 864.545,2585.12C860.526,2591.68 857.269,2598.74 855.355,2606.2C853.971,2611.6 853.305,2617.18 853.579,2622.75C853.784,2626.9 854.513,2631.03 855.776,2634.99C856.705,2637.9 857.919,2640.72 859.387,2643.39C869.802,2662.39 891.194,2672.19 911.606,2676.17C915.451,2676.92 919.332,2677.48 923.228,2677.88C1680.89,2756.09 2438.36,2836.16 3195.74,2917.08C3208.27,2918.42 3220.91,2918.73 3233.5,2918.01C3243.75,2917.43 3253.96,2916.17 3264.04,2914.22C3272.23,2912.63 3280.34,2910.59 3288.3,2908.08C3294.82,2906.01 3301.24,2903.64 3307.52,2900.93C3312.5,2898.78 3317.39,2896.42 3322.16,2893.84C3350.35,2878.6 3376.36,2854.33 3384.33,2822.29C3517.8,2285.54 3652.35,1749.05 3789.11,1213.12Z"/>
                        </g>
                        <g transform="matrix(1,0,0,1,34.9772,13.6069)">
                            <path d="M1678.8,1688.87C1686.01,1688.56 1693.93,1690.55 1698.31,1696.72C1702.7,1702.92 1701.94,1711.09 1699.22,1717.8C1699.22,1717.8 1699.22,1717.8 1699.22,1717.8C1695.6,1726.74 1688.66,1734.24 1680.83,1739.72C1673.01,1745.19 1663.6,1749.13 1653.96,1749.46C1611.98,1750.9 1570.01,1752.38 1528.03,1753.88C1521.06,1754.13 1513.39,1752.11 1509.35,1745.97C1505.28,1739.79 1506.38,1731.82 1509.18,1725.37C1509.18,1725.37 1509.18,1725.37 1509.18,1725.37C1512.93,1716.7 1519.77,1709.45 1527.44,1704.09C1535.05,1698.79 1544.15,1694.87 1553.51,1694.45C1595.27,1692.56 1637.03,1690.7 1678.8,1688.87Z" style="fill:url(#_Linear1);"/>
                            <g transform="matrix(1,0,0,1,0,398.114)">
                                <path d="M1576.93,1539.84C1584.51,1539.81 1592.48,1542.44 1596.78,1549.06C1601.17,1555.81 1600.39,1564.46 1597.51,1571.63C1597.51,1571.63 1597.5,1571.63 1597.5,1571.63C1593.78,1580.89 1586.67,1588.69 1578.51,1594.28C1570.49,1599.78 1560.8,1603.62 1550.97,1603.56C1508.11,1603.31 1465.24,1603.09 1422.38,1602.91C1415.05,1602.88 1407.36,1600.22 1403.41,1593.67C1399.37,1586.96 1400.49,1578.54 1403.46,1571.66C1403.46,1571.66 1403.47,1571.66 1403.47,1571.66C1407.33,1562.7 1414.34,1555.17 1422.33,1549.71C1430.11,1544.39 1439.48,1540.57 1449.01,1540.51C1491.65,1540.25 1534.29,1540.03 1576.93,1539.84Z" style="fill:url(#_Linear2);"/>
                            </g>
                            <g transform="matrix(1,0,0,1,0,796.227)">
                                <path d="M1470.46,1403.61C1478.44,1403.91 1486.44,1407.26 1490.66,1414.33C1495.05,1421.67 1494.27,1430.82 1491.2,1438.49C1491.2,1438.49 1491.2,1438.49 1491.2,1438.49C1487.37,1448.07 1480.09,1456.17 1471.58,1461.87C1463.35,1467.39 1453.35,1471.07 1443.34,1470.57C1399.55,1468.42 1355.76,1466.3 1311.97,1464.21C1304.26,1463.84 1296.56,1460.48 1292.7,1453.5C1288.69,1446.23 1289.82,1437.34 1292.98,1429.99C1292.98,1429.99 1292.98,1429.99 1292.98,1429.99C1296.96,1420.74 1304.15,1412.93 1312.47,1407.38C1320.44,1402.05 1330.09,1398.37 1339.8,1398.72C1383.35,1400.31 1426.91,1401.94 1470.46,1403.61Z" style="fill:url(#_Linear3);"/>
                            </g>
                        </g>
                        <g transform="matrix(1,0,0,1,1754.04,13.6069)">
                            <path d="M1168.23,1715.24C1158.46,1715.46 1148.14,1712.6 1141.29,1705.29C1134.94,1698.52 1133.08,1689.01 1135.2,1680.11C1135.2,1680.11 1135.2,1680.11 1135.2,1680.11C1137.67,1669.66 1144.8,1660.72 1153.28,1654.4C1162.37,1647.62 1173.58,1643.35 1184.95,1642.99C1248.36,1640.95 1311.77,1638.97 1375.17,1637.02C1385.31,1636.71 1395.98,1639.58 1403.29,1646.92C1410.07,1653.75 1412.51,1663.5 1410.65,1672.84C1410.65,1672.84 1410.65,1672.84 1410.65,1672.84C1408.5,1683.65 1401.38,1693 1392.71,1699.54C1383.36,1706.61 1371.73,1710.9 1359.98,1711.14C1296.06,1712.46 1232.15,1713.83 1168.23,1715.24Z" style="fill:url(#_Linear4);"/>
                            <g transform="matrix(1,0,0,1,0,398.114)">
                                <path d="M1098.62,1619.73C1088.31,1619.54 1077.75,1615.86 1070.87,1607.91C1064.39,1600.41 1062.46,1590.21 1064.7,1580.66C1064.7,1580.66 1064.71,1580.66 1064.71,1580.66C1067.26,1569.77 1074.56,1560.4 1083.48,1553.88C1092.88,1547.01 1104.52,1542.91 1116.21,1543.01C1181.68,1543.56 1247.15,1544.16 1312.62,1544.81C1323.31,1544.92 1334.26,1548.62 1341.61,1556.63C1348.57,1564.21 1351.09,1574.7 1349.11,1584.72C1349.11,1584.72 1349.11,1584.72 1349.11,1584.72C1346.88,1596 1339.58,1605.8 1330.45,1612.56C1320.76,1619.73 1308.67,1623.82 1296.58,1623.57C1230.59,1622.25 1164.61,1620.96 1098.62,1619.73Z" style="fill:url(#_Linear5);"/>
                            </g>
                            <g transform="matrix(1,0,0,1,0,796.227)">
                                <path d="M1025.39,1542.75C1014.52,1542.09 1003.74,1537.53 996.831,1528.91C990.207,1520.64 988.213,1509.7 990.594,1499.47C990.594,1499.47 990.595,1499.47 990.595,1499.47C993.236,1488.12 1000.7,1478.3 1010.08,1471.6C1019.82,1464.63 1031.9,1460.75 1043.89,1461.36C1111.48,1464.75 1179.05,1468.18 1246.63,1471.67C1257.91,1472.25 1269.12,1476.84 1276.53,1485.56C1283.65,1493.94 1286.26,1505.21 1284.15,1515.94C1284.15,1515.94 1284.15,1515.95 1284.15,1515.95C1281.83,1527.71 1274.37,1537.99 1264.75,1544.95C1254.7,1552.21 1242.13,1556.07 1229.72,1555.3C1161.61,1551.07 1093.51,1546.88 1025.39,1542.75Z" style="fill:url(#_Linear6);"/>
                            </g>
                        </g>
                        <g transform="matrix(1,0,0,1,4.54747e-13,-12.2088)">
                            <g transform="matrix(6.12323e-17,1,-1,6.12323e-17,3381.03,1771.73)">
                                <path d="M797.818,1717.62C787.511,1713.9 778.731,1706.37 772.712,1697.29C766.85,1688.45 763.306,1677.66 764.244,1666.98C764.244,1666.98 764.244,1666.98 764.244,1666.98C765.047,1657.84 769.478,1649.08 777.464,1644.23C785.71,1639.23 795.957,1639.3 804.86,1642.42C861.364,1662.22 917.882,1681.98 974.414,1701.7C985.062,1705.42 994.183,1713.09 1000.31,1722.49C1006.22,1731.57 1009.58,1742.7 1008.21,1753.57C1008.21,1753.57 1008.21,1753.57 1008.21,1753.57C1007.03,1763 1001.99,1771.78 993.601,1776.52C984.958,1781.4 974.435,1781.24 965.273,1777.94C909.441,1757.87 853.623,1737.77 797.818,1717.62Z" style="fill:url(#_Linear7);"/>
                            </g>
                            <g transform="matrix(6.12323e-17,1,-1,6.12323e-17,3768.55,1771.73)">
                                <path d="M826.384,1802.74C815.6,1799.3 806.36,1791.7 800.082,1782.37C793.861,1773.13 790.291,1761.79 791.299,1750.61C791.299,1750.61 791.299,1750.61 791.299,1750.6C792.185,1740.77 796.898,1731.33 805.272,1725.82C813.769,1720.23 824.506,1719.63 834.061,1722.58C893.397,1740.89 952.746,1759.16 1012.11,1777.38C1023.26,1780.8 1032.87,1788.53 1039.28,1798.21C1045.57,1807.72 1048.94,1819.41 1047.49,1830.82C1047.49,1830.82 1047.49,1830.82 1047.49,1830.82C1046.2,1840.96 1040.85,1850.46 1032.04,1855.88C1023.11,1861.36 1012.07,1861.87 1002.23,1858.74C943.6,1840.12 884.985,1821.45 826.384,1802.74Z" style="fill:url(#_Linear8);"/>
                            </g>
                            <g transform="matrix(6.12323e-17,1,-1,6.12323e-17,4156.07,1771.73)">
                                <path d="M857.494,1868.03C846.222,1864.9 836.492,1857.26 829.934,1847.68C823.333,1838.03 819.741,1826.12 820.821,1814.41C820.821,1814.41 820.821,1814.41 820.821,1814.41C821.796,1803.84 826.813,1793.68 835.585,1787.47C844.347,1781.26 855.588,1779.93 865.84,1782.66C928.15,1799.26 990.47,1815.82 1052.8,1832.34C1064.46,1835.43 1074.6,1843.19 1081.31,1853.14C1088,1863.08 1091.38,1875.38 1089.84,1887.33C1089.84,1887.34 1089.84,1887.34 1089.84,1887.34C1088.43,1898.24 1082.76,1908.49 1073.5,1914.63C1064.29,1920.74 1052.7,1921.98 1042.14,1919.07C980.582,1902.1 919.032,1885.08 857.494,1868.03Z" style="fill:url(#_Linear9);"/>
                            </g>
                        </g>
                        <g transform="matrix(1,0,0,1,4.54747e-13,-1758.6)">
                            <g transform="matrix(6.12323e-17,1,-1,6.12323e-17,3381.03,1771.73)">
                                <path d="M1434.08,1244.11C1443.06,1247.38 1450.57,1254.23 1456.09,1261.88C1461.83,1269.85 1465.94,1279.42 1466.65,1289.29C1466.65,1289.29 1466.65,1289.29 1466.65,1289.29C1467.18,1296.7 1465.61,1305.1 1459.61,1310.09C1453.87,1314.86 1445.94,1314.63 1439.27,1312.14C1395.24,1295.68 1351.22,1279.18 1307.22,1262.64C1298.53,1259.38 1291.29,1252.65 1285.91,1245.24C1280.24,1237.44 1276.1,1228.13 1275.13,1218.48C1275.13,1218.48 1275.13,1218.48 1275.13,1218.48C1274.41,1211.28 1275.57,1202.96 1281.23,1197.87C1286.62,1193.02 1294.31,1193.15 1300.78,1195.51C1345.2,1211.75 1389.63,1227.95 1434.08,1244.11Z" style="fill:url(#_Linear10);"/>
                            </g>
                            <g transform="matrix(6.12323e-17,1,-1,6.12323e-17,3768.55,1771.73)">
                                <path d="M1413.36,1355.25C1422.69,1358.25 1430.52,1365.17 1436.23,1372.97C1442.27,1381.23 1446.47,1391.21 1447.18,1401.48C1447.18,1401.48 1447.18,1401.48 1447.18,1401.48C1447.74,1409.43 1446.03,1418.34 1439.84,1423.88C1434.02,1429.09 1425.83,1429.45 1418.69,1427.08C1372.98,1411.87 1327.28,1396.62 1281.6,1381.32C1272.59,1378.3 1265.05,1371.51 1259.49,1363.97C1253.54,1355.9 1249.3,1346.2 1248.31,1336.17C1248.31,1336.17 1248.31,1336.17 1248.31,1336.17C1247.55,1328.46 1248.81,1319.66 1254.62,1314.03C1260.07,1308.76 1268,1308.3 1274.92,1310.54C1321.05,1325.49 1367.2,1340.39 1413.36,1355.25Z" style="fill:url(#_Linear11);"/>
                            </g>
                            <g transform="matrix(6.12323e-17,1,-1,6.12323e-17,4156.07,1771.73)">
                                <path d="M1392.1,1451.06C1401.78,1453.75 1409.98,1460.71 1415.89,1468.65C1422.25,1477.19 1426.54,1487.6 1427.26,1498.28C1427.26,1498.28 1427.26,1498.28 1427.26,1498.28C1427.84,1506.81 1425.98,1516.25 1419.59,1522.38C1413.68,1528.05 1405.21,1529.07 1397.57,1526.85C1350.04,1513.1 1302.52,1499.3 1255.01,1485.46C1245.66,1482.73 1237.8,1475.9 1232.04,1468.23C1225.79,1459.9 1221.44,1449.81 1220.42,1439.39C1220.42,1439.39 1220.42,1439.39 1220.42,1439.39C1219.62,1431.13 1221,1421.83 1226.99,1415.63C1232.5,1409.93 1240.67,1408.81 1248.08,1410.88C1296.08,1424.32 1344.08,1437.71 1392.1,1451.06Z" style="fill:url(#_Linear12);"/>
                            </g>
                        </g>
                        <g>
                            <g transform="matrix(0.437678,0,0,0.60366,1128.85,852.626)">
                                <path d="M3918.51,1151.58C3920.3,1146.4 3921.39,1140.96 3921.47,1135.48C3921.54,1131.7 3921.12,1127.91 3920.21,1124.25C3919.62,1121.85 3918.81,1119.5 3917.81,1117.24C3910.4,1100.46 3893.57,1090.04 3876.87,1084.19C3873.83,1083.12 3870.74,1082.19 3867.62,1081.37C3863.65,1080.33 3859.63,1079.48 3855.59,1078.8C3850.05,1077.86 3844.45,1077.23 3838.85,1076.87C3832,1076.42 3825.12,1076.37 3818.26,1076.65C3152.72,1103.68 2487.24,1132.2 1821.85,1162.77C1802.44,1163.66 1783.2,1167.72 1764.84,1174.01C1747.4,1179.98 1730.57,1188.03 1715.27,1198.34C1700.16,1208.52 1685.66,1221.3 1676.83,1237.51C1442.92,1666.9 1211.17,2097.47 981.067,2528.92C977.786,2535.07 975.249,2541.66 973.956,2548.53C972.995,2553.63 972.736,2558.87 973.338,2564.03C973.768,2567.72 974.635,2571.36 975.925,2574.84C976.839,2577.3 977.962,2579.69 979.271,2581.97C989.186,2599.24 1008.36,2608.89 1027.07,2613.49C1030.57,2614.35 1034.1,2615.05 1037.66,2615.61C1042.66,2616.39 1047.71,2616.9 1052.77,2617.17C1780.3,2656.26 2507.71,2697.64 3235.03,2740.58C3262.99,2742.23 3291.34,2738.3 3317.86,2729.31C3334.59,2723.63 3350.72,2715.89 3365.24,2705.8C3384.2,2692.62 3401.31,2674.72 3408.77,2652.46C3576.6,2151.46 3746.25,1651.08 3918.51,1151.58Z" style="fill:white;"/>
                            </g>
                            <g transform="matrix(0.336011,0,0,0.411136,1390.89,1232.84)">
                                <path d="M1542.04,1461.8C1755.72,1462.76 1969.41,1463.98 2183.09,1465.45C2192.09,1443.8 2201.09,1422.15 2210.09,1400.5C2676.47,1392.86 3142.87,1386.15 3609.27,1380.23C3589.36,1439.91 3569.48,1499.6 3549.63,1559.29C3527.26,1559.14 3504.85,1559.89 3482.5,1560.77C3445.41,1562.22 3408.34,1564.56 3371.35,1567.73C3325.48,1571.66 3279.7,1576.88 3234.16,1583.69C3199.14,1588.92 3164.26,1595.09 3129.62,1602.46C3076.39,1613.79 3023.59,1627.88 2972.43,1646.58C2931.8,1661.44 2892.03,1679.24 2855.13,1701.93C2807.36,1731.3 2763.38,1769.93 2737.66,1820.57C2723.52,1848.41 2712.49,1878.2 2708.01,1909.22C2705.75,1924.9 2705.21,1940.85 2706.78,1956.63C2707.85,1967.47 2709.92,1978.22 2712.98,1988.68C2715.04,1995.75 2717.55,2002.69 2720.48,2009.44C2742.46,2060.22 2786.34,2098.14 2833.13,2125.72C2841.32,2130.55 2849.67,2135.1 2858.16,2139.4C2869.09,2144.94 2880.24,2150.07 2891.55,2154.8C2904.02,2160.02 2916.69,2164.78 2929.53,2169.02C2937.46,2171.64 2945.48,2174.2 2953.6,2176.18C2938.57,2218.98 2923.55,2261.78 2908.55,2304.58C2822.98,2301.99 2737.41,2299.44 2651.84,2296.91C2649.91,2294.21 2647.7,2291.69 2645.5,2289.21C2641.82,2285.07 2637.95,2281.09 2633.95,2277.25C2621.43,2265.24 2607.65,2254.54 2593.13,2245.05C2532.95,2205.74 2460.98,2188.34 2389.68,2186.61C2350.97,2185.67 2312.22,2189.13 2274.05,2195.48C2228.81,2203 2184.25,2214.56 2140.7,2228.88C2114.37,2237.53 2088.38,2247.21 2062.8,2257.9C2047.33,2264.37 2031.85,2271.03 2016.91,2278.64C1937.89,2276.44 1858.88,2274.26 1779.86,2272.1C1796.64,2231.64 1813.44,2191.17 1830.24,2150.72C1847.33,2146.61 1864.23,2141.58 1881.02,2136.41C1908.55,2127.94 1935.81,2118.54 1962.69,2108.2C1997.71,2094.72 2032.16,2079.64 2065.47,2062.34C2093.97,2047.54 2121.71,2031.1 2147.73,2012.22C2155.19,2006.81 2162.51,2001.18 2169.64,1995.33C2175.16,1990.79 2180.57,1986.12 2185.84,1981.29C2216.61,1953.08 2243.77,1918.62 2255.25,1877.86C2258.4,1866.69 2260.6,1855.14 2260.78,1843.5C2260.89,1836.28 2260.19,1829.02 2258.36,1822.02C2257.18,1817.53 2255.54,1813.17 2253.43,1809.04C2241.63,1786.01 2216.81,1773.77 2193.23,1766.27C2188.48,1764.76 2183.68,1763.4 2178.85,1762.18C2173.08,1760.71 2167.26,1759.42 2161.41,1758.25C2153.44,1756.66 2145.42,1755.31 2137.37,1754.11C2101.85,1748.8 2065.97,1746.15 2030.21,1743.1C1982.94,1739.07 1935.59,1734.74 1888.86,1726.26C1854.86,1720.08 1821.1,1711.72 1788.82,1699.23C1754.21,1685.84 1720.94,1668.86 1690.22,1648.01C1648.72,1619.84 1611.93,1584.54 1583.32,1543.27C1571.93,1526.84 1561.81,1509.49 1553.44,1491.34C1550.65,1485.28 1548.06,1479.13 1545.73,1472.88C1544.38,1469.24 1543.04,1465.55 1542.04,1461.8Z"/>
                            </g>
                        </g>
                    </g>
                </g>
            </g>
        </g>
    </g>
    <defs>
        <linearGradient id="_Linear1" x1="0" y1="0" x2="1" y2="0" gradientUnits="userSpaceOnUse" gradientTransform="matrix(2141.75,-1518.97,1518.97,2141.75,1123.84,2657.39)"><stop offset="0" style="stop-color:rgb(255,0,83);stop-opacity:1"/><stop offset="1" style="stop-color:rgb(0,12,255);stop-opacity:1"/></linearGradient>
        <linearGradient id="_Linear2" x1="0" y1="0" x2="1" y2="0" gradientUnits="userSpaceOnUse" gradientTransform="matrix(2141.75,-1518.97,1518.97,2141.75,1123.84,2259.28)"><stop offset="0" style="stop-color:rgb(255,0,83);stop-opacity:1"/><stop offset="1" style="stop-color:rgb(0,12,255);stop-opacity:1"/></linearGradient>
        <linearGradient id="_Linear3" x1="0" y1="0" x2="1" y2="0" gradientUnits="userSpaceOnUse" gradientTransform="matrix(2141.75,-1518.97,1518.97,2141.75,1123.84,1861.16)"><stop offset="0" style="stop-color:rgb(255,0,83);stop-opacity:1"/><stop offset="1" style="stop-color:rgb(0,12,255);stop-opacity:1"/></linearGradient>
        <linearGradient id="_Linear4" x1="0" y1="0" x2="1" y2="0" gradientUnits="userSpaceOnUse" gradientTransform="matrix(2141.75,-1518.97,1518.97,2141.75,-595.224,2657.39)"><stop offset="0" style="stop-color:rgb(255,0,83);stop-opacity:1"/><stop offset="1" style="stop-color:rgb(0,12,255);stop-opacity:1"/></linearGradient>
        <linearGradient id="_Linear5" x1="0" y1="0" x2="1" y2="0" gradientUnits="userSpaceOnUse" gradientTransform="matrix(2141.75,-1518.97,1518.97,2141.75,-595.224,2259.28)"><stop offset="0" style="stop-color:rgb(255,0,83);stop-opacity:1"/><stop offset="1" style="stop-color:rgb(0,12,255);stop-opacity:1"/></linearGradient>
        <linearGradient id="_Linear6" x1="0" y1="0" x2="1" y2="0" gradientUnits="userSpaceOnUse" gradientTransform="matrix(2141.75,-1518.97,1518.97,2141.75,-595.224,1861.16)"><stop offset="0" style="stop-color:rgb(255,0,83);stop-opacity:1"/><stop offset="1" style="stop-color:rgb(0,12,255);stop-opacity:1"/></linearGradient>
        <linearGradient id="_Linear7" x1="0" y1="0" x2="1" y2="0" gradientUnits="userSpaceOnUse" gradientTransform="matrix(-1518.97,-2141.75,2141.75,-1518.97,911.471,2222.21)"><stop offset="0" style="stop-color:rgb(255,0,83);stop-opacity:1"/><stop offset="1" style="stop-color:rgb(0,12,255);stop-opacity:1"/></linearGradient>
        <linearGradient id="_Linear8" x1="0" y1="0" x2="1" y2="0" gradientUnits="userSpaceOnUse" gradientTransform="matrix(-1518.97,-2141.75,2141.75,-1518.97,911.471,2609.74)"><stop offset="0" style="stop-color:rgb(255,0,83);stop-opacity:1"/><stop offset="1" style="stop-color:rgb(0,12,255);stop-opacity:1"/></linearGradient>
        <linearGradient id="_Linear9" x1="0" y1="0" x2="1" y2="0" gradientUnits="userSpaceOnUse" gradientTransform="matrix(-1518.97,-2141.75,2141.75,-1518.97,911.471,2997.26)"><stop offset="0" style="stop-color:rgb(255,0,83);stop-opacity:1"/><stop offset="1" style="stop-color:rgb(0,12,255);stop-opacity:1"/></linearGradient>
        <linearGradient id="_Linear10" x1="0" y1="0" x2="1" y2="0" gradientUnits="userSpaceOnUse" gradientTransform="matrix(-1518.97,-2141.75,2141.75,-1518.97,2657.86,2222.21)"><stop offset="0" style="stop-color:rgb(255,0,83);stop-opacity:1"/><stop offset="1" style="stop-color:rgb(0,12,255);stop-opacity:1"/></linearGradient>
        <linearGradient id="_Linear11" x1="0" y1="0" x2="1" y2="0" gradientUnits="userSpaceOnUse" gradientTransform="matrix(-1518.97,-2141.75,2141.75,-1518.97,2657.86,2609.74)"><stop offset="0" style="stop-color:rgb(255,0,83);stop-opacity:1"/><stop offset="1" style="stop-color:rgb(0,12,255);stop-opacity:1"/></linearGradient>
        <linearGradient id="_Linear12" x1="0" y1="0" x2="1" y2="0" gradientUnits="userSpaceOnUse" gradientTransform="matrix(-1518.97,-2141.75,2141.75,-1518.97,2657.86,2997.26)"><stop offset="0" style="stop-color:rgb(255,0,83);stop-opacity:1"/><stop offset="1" style="stop-color:rgb(0,12,255);stop-opacity:1"/></linearGradient>
    </defs>
</svg>
